<?xml version="1.0" standalone="no"?>
<!DOCTYPE svg PUBLIC "-//W3C//DTD SVG 20010904//EN"
 "http://www.w3.org/TR/2001/REC-SVG-20010904/DTD/svg10.dtd">
<svg version="1.0" xmlns="http://www.w3.org/2000/svg"
 width="2290.000000pt" height="2290.000000pt" viewBox="0 0 2290.000000 2290.000000"
 preserveAspectRatio="xMidYMid meet">
<metadata>
Created by potrace 1.11, written by Peter Selinger 2001-2013
</metadata>
<g transform="translate(0.000000,2290.000000) scale(0.100000,-0.100000)"
fill="#000000" stroke="none">
<path d="M11375 22749 c39 -45 55 -59 66 -59 5 0 9 -3 7 -7 -5 -10 969 -982
977 -975 3 3 5 0 5 -5 0 -6 165 -177 368 -379 202 -202 368 -375 368 -386 1
-10 -4 -18 -12 -18 -7 0 -14 -4 -16 -9 -3 -10 -259 -281 -300 -319 -15 -14
-25 -29 -22 -34 3 -5 0 -7 -8 -6 -7 2 -12 -3 -10 -10 1 -6 -1 -11 -5 -10 -8 3
-48 -37 -238 -238 -66 -70 -119 -131 -117 -135 1 -5 -1 -8 -5 -7 -5 2 -48 -39
-98 -91 -49 -52 -101 -105 -115 -119 -14 -15 -24 -30 -22 -34 1 -4 -2 -7 -6
-6 -5 2 -33 -24 -63 -56 -30 -33 -64 -69 -76 -79 -12 -11 -20 -24 -17 -29 3
-5 0 -7 -8 -6 -7 2 -12 -3 -10 -10 1 -6 -2 -11 -7 -10 -5 2 -23 -13 -41 -32
-17 -19 -97 -104 -178 -189 -81 -84 -147 -158 -147 -165 0 -6 -4 -11 -10 -11
-17 0 -36 -16 -30 -26 4 -5 2 -9 -4 -9 -5 0 -35 -28 -68 -61 -32 -34 -68 -72
-80 -85 -13 -13 -23 -24 -23 -26 0 -2 66 -4 148 -5 191 -2 447 -15 577 -29 28
-3 70 -7 95 -9 56 -6 113 -12 165 -20 22 -3 64 -8 94 -11 30 -3 64 -8 75 -10
12 -2 53 -9 91 -14 39 -6 77 -12 85 -15 14 -4 73 -13 125 -20 11 -2 38 -7 60
-13 22 -6 54 -13 70 -15 46 -7 330 -74 430 -102 48 -13 92 -22 97 -19 4 3 8 1
8 -3 0 -5 21 -14 48 -21 69 -18 244 -72 267 -82 11 -5 54 -20 95 -34 154 -51
387 -141 498 -192 29 -13 54 -24 56 -24 2 0 39 -17 82 -37 44 -20 81 -37 84
-37 15 -3 361 -179 366 -187 3 -5 9 -7 14 -4 5 3 11 1 15 -5 4 -6 11 -7 17 -4
6 4 8 3 5 -3 -5 -8 93 -64 109 -62 4 0 10 -3 13 -9 5 -8 190 -121 215 -131 6
-2 15 -8 21 -13 5 -5 46 -31 90 -58 44 -27 85 -54 92 -60 7 -5 24 -15 38 -22
14 -6 25 -15 25 -20 0 -4 6 -8 14 -8 8 0 16 -4 18 -8 2 -7 106 -82 176 -127
17 -11 19 -13 120 -89 40 -31 75 -56 78 -56 3 0 15 -10 27 -23 12 -13 37 -32
55 -42 17 -11 32 -22 32 -25 0 -3 24 -24 53 -45 28 -22 60 -49 69 -60 10 -11
17 -17 18 -13 0 3 15 -8 33 -25 98 -93 197 -177 208 -177 7 0 10 -3 6 -6 -3
-3 17 -26 44 -50 27 -24 88 -82 135 -129 48 -47 91 -85 97 -85 6 0 8 -2 5 -5
-3 -3 31 -43 74 -88 44 -45 94 -99 111 -119 17 -20 35 -34 41 -31 6 3 8 3 4
-1 -10 -12 66 -99 77 -88 4 4 5 3 3 -3 -3 -11 120 -165 132 -165 4 0 11 -9 16
-19 5 -11 24 -37 41 -58 18 -21 55 -67 83 -103 28 -36 56 -72 63 -80 7 -8 30
-40 51 -70 21 -30 45 -62 53 -70 7 -8 24 -31 36 -50 55 -83 141 -205 150 -211
5 -3 8 -9 8 -12 -1 -11 33 -69 54 -91 11 -12 21 -28 23 -36 2 -8 7 -17 10 -20
4 -3 15 -21 26 -40 10 -19 26 -41 35 -48 9 -7 15 -15 14 -17 -6 -11 -2 -23 17
-43 12 -12 18 -22 15 -22 -7 0 48 -84 58 -88 4 -2 5 -7 2 -12 -3 -4 5 -23 18
-41 12 -19 29 -47 37 -64 8 -16 17 -32 20 -35 3 -3 30 -54 60 -115 30 -60 60
-117 67 -125 6 -8 12 -18 12 -23 1 -15 63 -142 73 -148 5 -3 9 -10 8 -15 -2
-17 32 -94 41 -94 6 0 8 -4 5 -8 -3 -5 0 -19 7 -33 13 -26 59 -134 103 -244
16 -38 31 -72 34 -75 3 -3 5 -9 5 -15 0 -14 57 -169 64 -175 3 -3 7 -12 8 -20
1 -8 24 -84 52 -169 28 -84 51 -160 51 -167 0 -8 4 -14 8 -14 4 0 9 -12 10
-26 1 -14 9 -46 17 -69 8 -24 24 -83 36 -132 12 -48 25 -93 30 -99 5 -6 7 -13
4 -15 -2 -3 1 -23 7 -45 6 -21 12 -43 13 -49 7 -52 19 -96 26 -101 5 -3 7 -9
4 -14 -3 -5 1 -40 10 -77 8 -37 17 -79 19 -93 3 -14 10 -50 16 -80 10 -52 46
-280 55 -345 2 -16 7 -52 10 -80 4 -27 9 -72 11 -100 2 -27 6 -64 9 -80 2 -17
7 -67 10 -110 4 -44 8 -96 10 -115 7 -64 19 -403 19 -545 0 -144 -12 -469 -19
-540 -3 -22 -7 -74 -10 -115 -3 -41 -7 -88 -9 -105 -2 -16 -6 -61 -10 -98 -4
-37 -9 -77 -11 -87 -2 -10 -6 -43 -9 -72 -9 -79 -13 -107 -25 -173 -6 -33 -13
-76 -16 -95 -3 -19 -10 -57 -15 -85 -5 -27 -12 -63 -15 -80 -6 -36 -8 -45 -34
-159 -11 -50 -17 -94 -15 -98 3 -4 0 -8 -7 -8 -7 0 -10 -3 -7 -6 3 -3 -1 -29
-8 -57 -8 -29 -16 -63 -18 -77 -3 -14 -9 -36 -14 -50 -5 -14 -10 -28 -11 -33
-4 -30 -19 -85 -77 -272 -20 -66 -38 -127 -39 -135 -1 -8 -7 -25 -13 -37 -7
-12 -11 -26 -10 -30 1 -4 -5 -24 -14 -43 -24 -52 -58 -160 -50 -160 4 0 2 -4
-4 -8 -6 -4 -23 -40 -38 -80 -37 -104 -86 -222 -147 -357 -10 -22 -19 -47 -21
-55 -2 -8 -5 -17 -8 -20 -12 -11 -89 -180 -82 -180 4 0 2 -4 -4 -8 -6 -4 -30
-47 -55 -97 -24 -49 -50 -96 -57 -104 -7 -7 -11 -19 -8 -26 3 -8 -2 -16 -10
-19 -9 -3 -13 -10 -10 -15 4 -5 3 -11 -2 -13 -10 -4 -74 -118 -67 -118 3 0 -3
-10 -15 -22 -11 -12 -20 -25 -20 -29 0 -6 -88 -156 -128 -219 -9 -14 -15 -27
-13 -29 1 -2 -1 -7 -6 -10 -13 -10 -48 -65 -45 -74 1 -4 -2 -7 -7 -7 -5 0 -22
-21 -37 -47 -15 -27 -32 -51 -38 -55 -6 -4 -7 -8 -2 -8 6 0 2 -6 -7 -12 -9 -7
-17 -20 -19 -28 -2 -8 -11 -21 -21 -28 -9 -7 -15 -18 -12 -23 4 -5 3 -9 -2 -9
-4 0 -24 -24 -43 -53 -19 -28 -41 -56 -47 -60 -7 -4 -13 -15 -13 -22 0 -8 -4
-15 -8 -15 -4 0 -15 -12 -24 -27 -9 -16 -28 -41 -42 -57 -13 -17 -22 -35 -19
-40 3 -6 3 -8 -2 -4 -4 4 -29 -20 -54 -55 -25 -34 -50 -67 -56 -73 -5 -6 -26
-30 -45 -54 -19 -24 -39 -48 -45 -54 -5 -6 -32 -38 -60 -71 -27 -33 -53 -61
-57 -63 -5 -2 -8 -7 -8 -12 0 -4 -31 -41 -69 -81 -39 -40 -67 -77 -64 -83 3
-5 2 -6 -4 -3 -11 7 -45 -28 -36 -37 4 -3 -1 -6 -10 -6 -10 0 -17 -4 -17 -8 0
-4 -33 -41 -74 -82 -41 -41 -72 -79 -69 -84 4 -6 3 -8 -2 -4 -4 4 -48 -33 -99
-82 -119 -116 -236 -223 -326 -300 -14 -12 -36 -31 -50 -43 -14 -12 -50 -42
-80 -67 -30 -24 -62 -50 -70 -57 -8 -8 -41 -33 -72 -57 -31 -24 -54 -47 -50
-51 4 -5 2 -5 -4 -2 -7 4 -26 -7 -44 -23 -18 -17 -35 -30 -39 -30 -4 0 -16 -8
-27 -18 -22 -20 -193 -142 -274 -196 -30 -20 -59 -39 -65 -44 -5 -4 -50 -33
-100 -65 -49 -31 -97 -62 -105 -67 -46 -31 -134 -80 -141 -80 -5 0 -9 -4 -9
-10 0 -5 -7 -10 -15 -10 -9 0 -18 -7 -21 -15 -4 -8 -11 -12 -16 -9 -6 4 -13 3
-17 -2 -7 -10 -28 -22 -171 -97 -52 -28 -98 -54 -101 -60 -3 -5 -9 -7 -12 -5
-4 1 -15 -4 -25 -13 -10 -8 -23 -14 -29 -12 -6 2 -18 -3 -26 -12 -9 -8 -19
-15 -23 -15 -4 0 -43 -17 -88 -39 -124 -59 -228 -107 -263 -121 -18 -7 -33
-16 -33 -20 0 -4 -6 -7 -12 -6 -16 1 -152 -56 -156 -66 -2 -5 -7 -6 -11 -3 -4
2 -58 -16 -120 -40 -61 -24 -162 -61 -224 -81 -61 -21 -114 -41 -115 -46 -2
-4 -8 -6 -12 -3 -5 3 -25 -1 -45 -9 -19 -8 -36 -15 -38 -14 -1 0 -29 -7 -62
-17 -33 -10 -64 -20 -70 -21 -5 -2 -94 -26 -197 -53 -199 -52 -212 -57 -202
-72 3 -5 0 -8 -8 -7 -7 2 -12 -3 -11 -9 2 -7 -3 -12 -10 -10 -6 1 -11 -4 -10
-10 2 -7 -3 -12 -10 -10 -6 1 -11 -4 -10 -10 2 -7 -3 -12 -10 -10 -6 1 -11 -4
-10 -10 2 -7 -3 -12 -10 -10 -6 1 -11 -4 -10 -10 2 -7 -3 -12 -10 -10 -6 1
-11 -4 -10 -10 2 -7 -3 -12 -10 -10 -6 1 -11 -4 -10 -10 2 -7 -3 -12 -10 -10
-6 1 -11 -4 -10 -10 2 -7 -3 -12 -10 -10 -6 1 -11 -4 -10 -10 2 -7 -3 -12 -10
-10 -6 1 -11 -4 -10 -10 2 -7 -3 -12 -10 -10 -6 1 -11 -4 -10 -10 2 -7 -3 -12
-10 -10 -6 1 -11 -4 -10 -10 2 -7 -3 -12 -10 -10 -6 1 -11 -4 -10 -10 2 -7 -3
-12 -10 -10 -6 1 -11 -4 -10 -10 2 -7 -3 -12 -10 -10 -6 1 -11 -4 -10 -10 2
-7 -3 -12 -10 -10 -6 1 -11 -4 -10 -10 2 -7 -3 -12 -10 -10 -6 1 -11 -4 -10
-10 2 -7 -3 -12 -10 -10 -6 1 -11 -4 -9 -11 1 -8 -1 -11 -6 -8 -12 7 -54 -38
-45 -48 5 -4 1 -6 -7 -4 -8 2 -14 -3 -13 -9 2 -7 -3 -12 -10 -10 -6 1 -11 -4
-10 -10 2 -7 -3 -12 -10 -10 -6 1 -11 -4 -10 -10 2 -7 -3 -12 -10 -10 -6 1
-11 -4 -10 -10 2 -7 -3 -12 -10 -10 -6 1 -11 -4 -10 -10 2 -7 -3 -12 -10 -10
-6 1 -11 -4 -10 -10 2 -7 -3 -12 -10 -10 -6 1 -11 -4 -10 -10 2 -7 -3 -12 -10
-10 -6 1 -11 -4 -10 -10 2 -7 -3 -12 -10 -10 -6 1 -11 -4 -10 -10 2 -7 -3 -12
-10 -10 -6 1 -11 -4 -10 -10 2 -7 -3 -12 -10 -10 -6 1 -11 -4 -10 -10 2 -7 -3
-12 -10 -10 -6 1 -11 -4 -10 -10 2 -7 -3 -12 -10 -10 -6 1 -11 -4 -10 -10 2
-7 -3 -12 -10 -10 -6 1 -11 -4 -10 -10 2 -7 -3 -12 -10 -10 -6 1 -11 -4 -10
-10 2 -7 -3 -12 -10 -10 -6 1 -11 -4 -10 -10 2 -7 -3 -12 -10 -10 -6 1 -11 -4
-10 -10 2 -7 -3 -12 -10 -10 -6 1 -11 -4 -10 -10 2 -7 -3 -12 -10 -10 -6 1
-11 -4 -10 -10 2 -7 -3 -12 -10 -10 -6 1 -11 -4 -10 -10 2 -7 -3 -12 -10 -10
-6 1 -11 -4 -10 -10 2 -7 -3 -12 -10 -10 -6 1 -11 -4 -10 -10 2 -7 -3 -12 -10
-10 -6 1 -11 -4 -10 -10 2 -7 -3 -12 -10 -10 -6 1 -11 -4 -10 -10 2 -7 -3 -12
-10 -10 -6 1 -11 -4 -10 -10 2 -7 -3 -12 -10 -10 -6 1 -11 -4 -10 -10 2 -7 -3
-12 -10 -10 -6 1 -11 -4 -10 -10 2 -7 -3 -12 -10 -10 -6 1 -11 -4 -10 -10 2
-7 -3 -12 -10 -10 -6 1 -11 -4 -10 -10 2 -7 -3 -12 -10 -10 -6 1 -11 -4 -10
-10 2 -7 -3 -12 -10 -10 -6 1 -11 -4 -10 -10 2 -7 -3 -12 -10 -10 -6 1 -11 -4
-10 -10 2 -7 -3 -12 -10 -10 -6 1 -11 -4 -10 -10 2 -7 -3 -12 -10 -10 -6 1
-11 -4 -10 -10 2 -7 -3 -12 -10 -10 -6 1 -11 -4 -10 -10 2 -7 -3 -12 -10 -10
-6 1 -11 -4 -10 -10 2 -7 -3 -12 -10 -10 -6 1 -11 -4 -10 -10 2 -7 -3 -12 -10
-10 -6 1 -11 -4 -10 -10 2 -7 -3 -12 -10 -10 -6 1 -11 -4 -10 -10 2 -7 -3 -12
-10 -10 -6 1 -11 -4 -10 -10 2 -7 -3 -12 -10 -10 -6 1 -11 -4 -10 -10 2 -7 -3
-12 -10 -10 -6 1 -11 -4 -10 -10 2 -7 -3 -12 -10 -10 -6 1 -11 -4 -10 -10 2
-7 -3 -12 -10 -10 -6 1 -11 -4 -10 -10 2 -7 -3 -12 -10 -10 -6 1 -11 -4 -10
-10 2 -7 -3 -12 -10 -10 -6 1 -11 -4 -10 -10 2 -7 -3 -12 -10 -10 -6 1 -11 -4
-10 -10 2 -7 -3 -12 -10 -10 -6 1 -11 -4 -10 -10 2 -7 -3 -12 -10 -10 -6 1
-11 -4 -10 -10 2 -7 -3 -12 -10 -10 -6 1 -11 -4 -10 -10 2 -7 -3 -12 -10 -10
-6 1 -11 -4 -10 -10 2 -7 -3 -12 -10 -10 -6 1 -11 -4 -10 -10 2 -7 -3 -12 -10
-10 -6 1 -11 -4 -10 -10 2 -7 -3 -12 -10 -10 -6 1 -11 -4 -10 -10 2 -7 -3 -12
-10 -10 -6 1 -11 -4 -10 -10 2 -7 -3 -12 -10 -10 -6 1 -11 -4 -10 -10 2 -7 -3
-12 -10 -10 -6 1 -11 -4 -10 -10 2 -7 -3 -12 -10 -10 -6 1 -11 -4 -10 -10 2
-7 -3 -12 -10 -10 -6 1 -11 -4 -10 -10 2 -7 -3 -12 -10 -10 -6 1 -11 -4 -10
-10 2 -7 -3 -12 -10 -10 -6 1 -11 -4 -10 -10 2 -7 -3 -12 -10 -10 -6 1 -11 -4
-10 -10 2 -7 -3 -12 -10 -10 -6 1 -11 -5 -9 -13 2 -8 0 -12 -4 -8 -9 10 -35
-12 -28 -23 3 -5 0 -8 -8 -7 -7 2 -12 -3 -11 -9 2 -7 -3 -12 -10 -10 -6 1 -11
-4 -10 -10 2 -7 -3 -12 -10 -10 -6 1 -11 -4 -10 -10 2 -7 -3 -12 -10 -10 -6 1
-11 -4 -10 -10 2 -7 -3 -12 -10 -10 -6 1 -11 -4 -10 -10 2 -7 -3 -12 -10 -10
-6 1 -11 -4 -10 -10 2 -7 -3 -12 -10 -10 -6 1 -11 -4 -10 -10 2 -7 -3 -12 -10
-10 -6 1 -11 -4 -10 -10 2 -7 -3 -12 -10 -10 -6 1 -11 -4 -10 -10 2 -7 -3 -12
-10 -10 -6 1 -11 -4 -10 -10 2 -7 -3 -12 -10 -10 -6 1 -11 -4 -10 -10 2 -7 -3
-12 -10 -10 -6 1 -11 -4 -10 -10 2 -7 -3 -12 -10 -10 -6 1 -11 -4 -10 -10 2
-7 -3 -12 -10 -10 -6 1 -11 -4 -10 -10 2 -7 -2 -12 -8 -10 -6 1 -16 -6 -22
-15 -9 -14 1 -28 61 -87 39 -39 76 -71 82 -71 5 0 9 -4 7 -8 -1 -5 15 -26 36
-46 20 -21 37 -34 38 -30 0 5 4 -1 10 -14 5 -13 13 -20 19 -17 6 4 9 1 8 -7
-2 -7 3 -12 9 -11 7 2 12 -3 10 -10 -1 -6 4 -11 10 -10 7 2 12 -3 10 -10 -1
-6 4 -11 10 -10 7 2 12 0 11 -5 -2 -4 12 -22 30 -41 17 -19 32 -30 33 -25 0 5
4 -1 10 -14 5 -14 13 -20 20 -16 7 4 9 3 6 -3 -7 -11 37 -54 47 -47 3 2 4 1 1
-3 -7 -9 16 -34 26 -27 5 3 8 1 7 -4 -2 -5 25 -37 60 -71 34 -34 62 -58 63
-54 0 4 4 -2 10 -15 5 -13 13 -20 19 -17 6 4 9 2 8 -3 -3 -11 108 -122 122
-122 6 0 9 -4 7 -8 -1 -5 15 -26 36 -46 20 -21 37 -34 38 -29 0 4 4 -2 10 -15
5 -13 13 -20 19 -17 6 4 9 1 8 -7 -2 -7 3 -12 9 -11 7 2 12 -3 10 -10 -1 -6 4
-11 10 -10 7 2 12 -1 10 -5 -3 -12 125 -137 137 -134 6 2 8 0 4 -4 -11 -10 12
-35 26 -27 6 3 8 3 4 -1 -9 -11 33 -57 45 -49 6 3 7 1 3 -6 -4 -7 2 -15 16
-20 13 -6 19 -10 14 -10 -5 -1 6 -16 25 -33 19 -18 37 -32 41 -30 5 1 7 -4 5
-11 -1 -6 4 -11 10 -10 7 2 12 -3 10 -10 -1 -6 4 -11 10 -10 7 2 12 -3 10 -10
-1 -6 4 -11 11 -9 8 1 11 -2 7 -8 -3 -6 4 -14 17 -19 13 -6 19 -10 14 -10 -4
-1 9 -18 30 -38 20 -21 41 -37 46 -36 4 2 8 -1 8 -7 0 -16 111 -125 124 -122
6 2 8 0 4 -4 -10 -9 12 -35 23 -28 5 3 9 0 9 -6 0 -14 70 -86 71 -73 0 4 4 -2
10 -15 5 -14 13 -20 20 -16 7 4 9 3 6 -3 -4 -6 0 -16 8 -23 15 -12 58 -10 220
14 42 7 97 16 130 22 11 2 36 6 55 9 84 12 119 18 185 31 39 8 81 16 95 19 60
9 99 17 160 30 36 8 76 17 90 19 39 8 108 23 140 31 3 1 33 7 68 15 34 7 65
16 68 21 2 4 11 6 19 2 9 -3 22 0 30 7 8 7 15 10 15 7 0 -3 42 6 93 19 50 14
99 26 107 28 8 2 42 11 75 20 33 9 70 19 83 22 13 2 44 12 70 21 50 17 50 16
100 28 17 4 32 12 32 17 0 5 4 7 8 4 7 -4 110 23 152 41 8 3 20 7 27 9 34 7
180 58 191 67 6 5 12 7 12 3 0 -3 30 6 68 20 37 14 101 37 142 51 41 14 80 29
85 33 6 4 31 13 57 21 26 7 44 17 41 23 -3 5 -1 6 5 2 7 -4 18 -4 25 1 6 4 21
9 31 10 11 2 29 11 39 21 11 9 20 15 21 13 2 -7 61 14 161 59 11 5 63 27 116
49 53 22 140 61 193 86 53 25 98 45 101 45 12 0 375 183 375 189 0 4 8 7 18 8
22 3 172 82 172 91 0 4 9 8 21 9 11 1 28 8 36 15 18 14 109 65 136 74 9 3 17
10 17 15 0 5 5 9 10 9 11 0 99 49 267 150 32 19 70 41 85 48 15 8 25 19 21 25
-3 5 -1 7 5 3 6 -3 18 1 26 10 9 8 16 12 16 7 0 -4 7 1 15 11 8 11 15 16 15
12 0 -4 19 6 42 22 24 16 111 73 193 127 83 55 152 102 155 105 3 3 13 10 22
15 53 31 188 129 188 136 0 5 6 9 13 9 6 0 25 11 41 25 16 14 32 25 35 25 3 0
20 13 38 28 17 15 44 36 59 47 16 11 36 28 46 38 10 9 19 16 21 15 3 -3 150
110 181 137 6 6 34 28 61 50 28 21 55 44 60 49 6 6 26 23 45 37 19 15 45 35
56 45 12 11 46 39 75 64 30 25 76 66 102 92 27 26 51 47 53 46 11 0 99 86 97
94 -2 4 1 7 5 5 14 -4 329 292 325 305 -2 5 3 7 10 5 6 -1 11 4 10 10 -2 7 3
12 10 10 6 -1 11 4 10 10 -2 7 3 12 10 10 6 -1 11 5 9 13 -2 8 0 12 4 8 9 -10
35 12 28 23 -3 5 0 8 8 7 7 -2 12 3 11 9 -2 7 1 12 6 10 12 -3 101 90 93 97
-3 3 2 6 10 6 9 0 18 4 20 9 2 5 53 62 114 127 100 107 181 197 224 247 17 21
39 46 88 100 18 21 30 37 28 37 -2 0 8 12 22 27 15 16 45 50 67 77 22 27 54
65 72 85 17 19 29 39 27 42 -2 4 2 9 9 12 8 3 39 39 71 81 31 41 61 78 66 81
6 4 8 11 5 16 -4 5 -2 9 3 9 10 0 124 147 120 154 -2 3 4 11 13 18 23 19 79
94 79 106 0 6 3 12 8 14 8 3 71 88 117 158 17 25 32 47 35 50 15 15 209 316
209 324 0 5 6 13 15 18 9 5 14 13 11 19 -4 5 -2 9 2 9 12 0 69 100 65 114 -2
6 0 8 4 4 7 -7 36 36 97 144 14 24 57 98 96 165 39 68 71 125 71 127 0 3 13
28 30 55 56 97 170 321 163 321 -5 0 -3 4 3 8 16 11 84 149 77 156 -4 3 -1 6
5 6 10 0 28 38 24 53 -1 4 3 7 8 7 6 0 10 4 10 9 0 5 18 47 39 93 78 163 221
501 216 508 -3 5 -1 10 4 12 12 4 121 289 115 300 -3 4 -1 8 4 8 5 0 16 21 25
48 9 26 27 78 41 116 14 39 23 73 20 77 -2 4 0 9 4 11 5 1 35 84 66 183 32 99
64 200 72 224 7 24 11 47 9 51 -3 5 -2 10 3 12 9 4 69 208 76 258 1 9 5 20 8
25 6 10 22 73 23 90 0 6 4 16 9 23 4 7 6 16 3 18 -3 3 1 21 9 40 8 18 13 37
12 41 0 5 1 15 5 23 7 19 30 118 33 145 1 11 3 20 4 20 2 0 3 5 33 145 14 63
23 118 20 123 -2 4 1 7 7 7 6 0 10 6 8 13 -1 6 1 28 5 47 4 19 9 53 13 75 3
22 7 42 9 45 2 3 6 24 9 46 4 22 8 49 10 61 5 24 18 109 22 138 1 11 3 20 4
20 2 0 8 45 14 103 3 23 7 46 10 50 2 4 7 34 10 67 4 33 8 73 11 90 14 107 30
248 40 355 3 36 8 85 10 110 3 25 7 86 11 135 3 50 7 108 9 130 26 264 26
1092 0 1470 -12 186 -22 296 -31 375 -2 25 -7 68 -9 95 -3 28 -7 66 -10 85 -3
19 -7 60 -10 90 -2 30 -7 66 -9 79 -3 13 -8 48 -12 79 -6 55 -11 87 -14 87 0
0 -3 18 -5 40 -2 22 -6 54 -9 70 -4 25 -18 109 -40 240 -3 17 -7 41 -10 55 -3
14 -10 50 -16 80 -17 92 -19 103 -34 175 -9 39 -18 81 -21 95 -20 98 -26 127
-36 163 -6 23 -13 51 -15 62 -5 25 -64 265 -69 283 -3 7 -5 14 -5 17 -1 3 -10
35 -21 72 -11 38 -22 79 -25 92 -3 14 -8 29 -12 35 -3 6 -7 17 -8 26 0 8 -11
49 -24 90 -13 41 -24 80 -26 85 -19 89 -251 738 -266 743 -4 2 -6 7 -3 12 4 7
-23 81 -63 170 -8 19 -16 37 -16 40 -3 14 -51 126 -55 130 -3 3 -7 10 -8 15
-1 6 -11 33 -24 60 -12 28 -23 55 -25 60 -12 46 -272 577 -288 587 -6 4 -7 8
-3 8 8 0 -53 119 -173 335 -18 33 -40 72 -47 88 -8 15 -19 27 -24 27 -5 0 -8
3 -7 8 2 7 -55 112 -105 193 -12 19 -35 57 -51 85 -16 27 -46 75 -67 107 -22
32 -39 60 -39 63 0 3 -11 20 -25 38 -14 18 -25 38 -25 44 0 6 -4 12 -9 14 -5
2 -17 17 -27 34 -52 86 -107 164 -115 164 -6 0 -7 5 -4 10 3 6 -1 13 -9 16 -9
3 -13 10 -10 15 3 5 0 9 -5 9 -6 0 -11 5 -11 11 0 6 -10 24 -22 39 -13 16 -43
57 -67 92 -50 70 -150 206 -166 225 -29 35 -35 43 -35 47 0 3 -7 14 -15 23
-17 22 -101 128 -135 172 -42 55 -84 104 -107 128 -13 13 -23 27 -24 31 -1 8
-79 100 -126 149 -17 18 -29 33 -25 33 3 0 -3 8 -14 19 -10 10 -32 33 -48 52
-69 80 -105 120 -205 227 -58 63 -107 118 -109 123 -2 5 -10 9 -18 9 -9 0 -13
4 -10 8 6 9 -35 48 -47 44 -4 -1 -6 2 -5 7 2 5 -81 92 -183 193 -246 242 -285
278 -300 278 -7 0 -10 3 -6 6 3 3 -15 24 -40 46 -25 22 -51 45 -58 51 -52 51
-150 132 -157 129 -4 -1 -8 4 -8 10 -1 7 -21 29 -46 48 -25 19 -58 45 -72 58
-15 13 -40 33 -56 45 -15 12 -38 31 -50 42 -11 11 -57 48 -101 82 -44 35 -95
75 -114 90 -18 16 -41 32 -50 37 -9 5 -18 12 -21 15 -3 3 -32 26 -65 51 -33
25 -62 48 -65 51 -3 3 -27 21 -55 39 -27 19 -56 40 -63 47 -8 7 -19 10 -25 6
-7 -3 -9 -3 -5 2 8 9 8 8 -216 162 -90 62 -166 109 -170 106 -3 -3 -6 -1 -6 5
0 10 -151 110 -158 104 -2 -2 -9 3 -15 11 -7 8 -28 23 -47 33 -19 11 -37 21
-40 24 -13 14 -123 75 -131 73 -5 -2 -9 1 -9 6 0 10 -152 101 -169 101 -5 0
-11 4 -13 8 -4 10 -190 113 -202 111 -5 0 -12 3 -15 9 -9 13 -161 93 -161 84
0 -4 -5 0 -10 9 -5 8 -27 21 -50 29 -22 7 -40 17 -40 22 0 5 -4 6 -10 3 -5 -3
-10 -1 -10 4 0 6 -4 11 -10 11 -5 0 -78 34 -162 75 -84 42 -155 76 -158 77 -3
1 -43 20 -90 42 -47 21 -89 41 -95 42 -5 1 -28 10 -50 20 -22 10 -43 17 -47
16 -5 -1 -8 3 -8 8 0 5 -3 9 -7 8 -8 -2 -66 22 -107 44 -10 5 -26 11 -35 13
-9 2 -82 31 -162 64 -80 33 -155 61 -165 63 -10 2 -21 5 -24 9 -3 3 -25 12
-50 21 -25 9 -85 31 -135 48 -49 18 -99 36 -110 40 -67 28 -398 129 -406 124
-5 -3 -9 0 -9 5 0 6 -3 10 -7 9 -5 0 -15 2 -23 5 -18 8 -264 76 -299 83 -14 3
-28 7 -33 10 -4 3 -18 7 -29 9 -12 2 -60 14 -108 26 -47 12 -93 23 -101 24 -8
1 -22 5 -30 8 -8 3 -42 11 -75 18 -33 7 -62 13 -65 14 -37 11 -60 16 -85 19
-16 2 -37 6 -45 9 -21 8 -102 25 -120 25 -8 1 -33 5 -55 11 -22 5 -53 12 -70
15 -16 2 -52 9 -80 14 -27 6 -68 13 -90 16 -41 6 -67 11 -115 21 -14 3 -45 7
-70 10 -25 3 -56 7 -70 10 -14 2 -43 7 -65 10 -23 3 -50 7 -60 9 -11 2 -49 7
-85 11 -36 4 -72 8 -80 10 -34 6 -219 26 -370 39 -200 17 -220 19 -445 31 -49
3 -225 8 -390 11 l-300 6 20 -23z m7906 -3136 c13 -16 12 -17 -3 -4 -17 13
-22 21 -14 21 2 0 10 -8 17 -17z"/>
<path d="M10018 22675 c-3 -3 -27 -8 -54 -11 -48 -4 -60 -6 -134 -19 -19 -4
-48 -8 -65 -10 -37 -4 -102 -14 -135 -20 -14 -3 -41 -8 -60 -11 -19 -3 -46 -7
-60 -10 -14 -3 -34 -7 -45 -8 -11 -2 -37 -7 -59 -11 -21 -4 -48 -9 -60 -11
-11 -2 -32 -6 -46 -9 -14 -3 -36 -7 -50 -11 -14 -3 -34 -7 -45 -8 -11 -2 -20
-4 -20 -5 0 -1 -13 -4 -30 -6 -16 -2 -41 -7 -55 -11 -14 -4 -29 -8 -35 -9 -5
-1 -12 -3 -15 -4 -3 -1 -16 -4 -30 -6 -14 -2 -54 -11 -90 -20 -36 -9 -76 -18
-90 -21 -14 -3 -43 -10 -65 -16 -22 -6 -47 -12 -55 -14 -8 -1 -35 -8 -60 -14
-25 -7 -52 -13 -60 -15 -8 -2 -15 -4 -15 -5 0 -1 -7 -3 -15 -5 -18 -5 -53 -13
-77 -19 -46 -12 -201 -57 -228 -66 -16 -6 -38 -13 -48 -15 -23 -5 -141 -43
-189 -61 -21 -8 -38 -11 -38 -8 0 4 -7 0 -17 -7 -9 -8 -19 -13 -22 -13 -8 2
-18 -1 -76 -22 -27 -10 -59 -19 -69 -21 -11 -2 -25 -8 -33 -14 -7 -6 -13 -8
-13 -4 0 4 -7 2 -15 -5 -8 -7 -15 -9 -15 -5 0 4 -6 2 -13 -4 -8 -6 -17 -8 -20
-4 -4 3 -7 0 -7 -7 0 -7 -3 -11 -6 -8 -3 3 -32 -4 -65 -17 -32 -13 -59 -21
-59 -18 0 3 -6 0 -14 -6 -8 -7 -25 -14 -37 -16 -13 -3 -25 -9 -27 -15 -2 -6
-8 -8 -12 -5 -5 3 -28 -3 -52 -13 -24 -11 -56 -25 -73 -32 -16 -8 -33 -13 -37
-12 -5 1 -8 -3 -8 -9 0 -5 -4 -8 -8 -5 -5 3 -22 -2 -38 -10 -16 -9 -29 -15
-29 -14 0 1 -13 -3 -28 -9 -16 -6 -33 -11 -38 -11 -5 0 -9 -5 -9 -12 0 -6 -3
-8 -7 -5 -3 4 -17 0 -30 -8 -13 -9 -23 -13 -23 -10 0 4 -12 0 -27 -9 -44 -23
-122 -56 -133 -56 -5 0 -10 -5 -10 -10 0 -6 -3 -9 -7 -9 -5 1 -11 0 -15 -1 -5
-1 -11 -4 -15 -5 -39 -11 -73 -29 -73 -37 0 -5 -4 -7 -9 -4 -4 3 -17 -1 -27
-9 -10 -8 -26 -15 -35 -15 -9 0 -22 -7 -29 -15 -7 -9 -15 -13 -18 -11 -2 3
-24 -6 -48 -19 -24 -14 -44 -22 -44 -18 0 4 -7 -2 -16 -13 -8 -10 -13 -14 -10
-8 5 11 -93 -34 -104 -47 -3 -3 -22 -12 -42 -18 -21 -7 -38 -16 -38 -21 0 -5
-14 -11 -31 -15 -17 -4 -33 -13 -36 -21 -3 -8 -9 -12 -13 -9 -5 3 -14 -1 -22
-8 -7 -7 -17 -14 -23 -15 -29 -6 -45 -15 -45 -24 0 -6 -3 -9 -6 -5 -3 3 -23
-4 -43 -17 -20 -13 -46 -26 -58 -30 -13 -4 -23 -12 -23 -17 0 -5 -3 -8 -7 -7
-13 3 -63 -25 -63 -34 0 -5 -4 -6 -10 -3 -5 3 -10 1 -10 -4 0 -6 -3 -10 -7 -9
-17 3 -119 -55 -135 -77 -5 -7 -8 -7 -8 0 0 6 -7 1 -16 -10 -8 -11 -16 -18
-18 -15 -4 7 -76 -33 -76 -43 0 -4 -4 -6 -8 -3 -5 3 -19 -4 -30 -15 -12 -11
-22 -16 -22 -12 0 4 -4 4 -8 -2 -4 -5 -23 -19 -42 -29 -65 -35 -130 -79 -130
-88 0 -5 -4 -7 -9 -4 -5 3 -14 -1 -21 -9 -7 -8 -16 -12 -21 -9 -5 3 -9 0 -9
-5 0 -6 -6 -11 -13 -11 -7 0 -24 -11 -39 -24 -14 -14 -29 -22 -32 -19 -3 4 -6
1 -6 -5 0 -7 -7 -12 -15 -12 -7 0 -18 -7 -23 -16 -5 -9 -11 -15 -13 -14 -8 4
-109 -63 -109 -72 0 -5 -4 -7 -8 -4 -5 3 -18 -3 -28 -12 -10 -10 -34 -27 -51
-37 -18 -11 -33 -23 -33 -27 0 -4 -7 -8 -15 -8 -8 0 -15 -4 -15 -10 0 -5 -6
-10 -14 -10 -8 0 -22 -10 -30 -22 -9 -12 -16 -18 -16 -13 0 6 -7 1 -15 -9 -8
-11 -15 -16 -15 -10 0 5 -10 -2 -21 -16 -11 -14 -17 -19 -13 -11 4 8 -9 2 -29
-13 -20 -16 -37 -32 -37 -37 0 -5 -7 -9 -15 -9 -8 0 -15 -5 -15 -11 0 -5 -4
-8 -8 -5 -5 3 -26 -12 -49 -32 -22 -20 -44 -39 -49 -41 -16 -7 -79 -55 -96
-75 -10 -10 -18 -16 -18 -13 0 4 -9 -1 -21 -11 -43 -35 -58 -48 -85 -67 -16
-11 -44 -36 -63 -55 -19 -19 -31 -28 -27 -20 4 8 -4 2 -18 -13 -14 -15 -26
-25 -26 -21 0 4 -13 -7 -30 -24 -16 -18 -30 -29 -30 -25 0 3 -8 -4 -19 -15
-10 -12 -22 -22 -27 -22 -5 0 -24 -16 -42 -35 -17 -20 -32 -33 -32 -31 0 7
-59 -45 -122 -106 -26 -25 -48 -43 -48 -40 0 4 -16 -11 -36 -33 -21 -22 -33
-33 -28 -25 4 8 -22 -15 -58 -51 -37 -37 -68 -66 -70 -64 -2 1 -12 -7 -23 -18
-11 -11 -14 -16 -6 -12 9 5 12 4 7 -3 -4 -7 -12 -12 -18 -12 -6 0 -42 -31 -80
-69 -37 -38 -68 -66 -68 -63 0 2 -13 -12 -30 -33 -16 -21 -30 -34 -30 -30 0 4
-13 -9 -30 -30 -16 -21 -30 -35 -30 -31 0 3 -8 -2 -18 -11 -11 -10 -17 -21
-15 -25 2 -4 -6 -10 -18 -13 -11 -4 -18 -9 -15 -13 4 -3 -6 -14 -21 -24 -16
-10 -24 -18 -19 -18 5 0 -8 -13 -29 -30 -21 -16 -35 -30 -31 -30 3 0 -15 -21
-41 -46 -27 -25 -47 -50 -45 -55 1 -5 -5 -9 -15 -9 -9 0 -14 -2 -11 -5 4 -5
-39 -54 -155 -174 -23 -24 -35 -40 -27 -35 8 4 -7 -15 -35 -42 -59 -60 -117
-124 -112 -124 3 0 -17 -23 -44 -52 -27 -29 -47 -54 -45 -55 2 -2 -11 -19 -28
-37 -38 -41 -61 -69 -62 -76 0 -3 -13 -19 -29 -36 -44 -46 -66 -74 -58 -74 4
0 -3 -7 -15 -16 -12 -8 -20 -20 -17 -25 4 -5 -1 -9 -10 -9 -9 0 -14 -4 -11 -8
3 -5 -3 -15 -12 -24 -22 -20 -53 -58 -47 -58 5 0 -8 -16 -57 -73 -15 -18 -28
-35 -28 -39 0 -4 -6 -13 -12 -20 -7 -7 -28 -33 -46 -58 -18 -25 -48 -66 -68
-92 -19 -27 -32 -48 -28 -48 5 0 -1 -7 -12 -15 -10 -8 -15 -15 -9 -15 5 0 -1
-7 -13 -16 -12 -8 -20 -20 -17 -25 4 -5 2 -9 -3 -9 -4 0 -19 -14 -31 -31 -13
-18 -17 -28 -10 -24 8 5 -1 -7 -18 -25 -18 -19 -33 -38 -33 -43 0 -4 -6 -14
-13 -22 -11 -12 -118 -173 -142 -215 -6 -10 -17 -25 -24 -34 -7 -9 -10 -16 -5
-16 5 0 0 -7 -10 -15 -11 -8 -17 -15 -13 -15 4 0 -1 -9 -11 -20 -9 -12 -15
-23 -12 -25 3 -2 -4 -11 -15 -20 -11 -9 -13 -14 -5 -10 13 6 13 5 0 -7 -21
-17 -82 -118 -72 -118 4 0 2 -4 -3 -8 -15 -10 -50 -66 -47 -74 1 -5 -3 -8 -9
-8 -5 0 -7 -4 -4 -10 3 -5 2 -10 -2 -10 -5 0 -20 -21 -33 -47 -14 -27 -28 -50
-31 -53 -9 -7 -53 -95 -48 -96 2 0 -4 -8 -14 -18 -9 -10 -14 -22 -11 -28 4 -7
2 -8 -4 -4 -11 6 -14 0 -11 -20 0 -4 -3 -10 -8 -13 -5 -3 -16 -19 -25 -36 -8
-16 -27 -51 -41 -77 -14 -27 -22 -48 -19 -48 4 0 3 -4 -3 -8 -17 -12 -55 -89
-48 -96 3 -3 1 -6 -5 -6 -7 0 -12 -7 -12 -15 0 -8 -4 -15 -9 -15 -5 0 -15 -17
-22 -37 -6 -21 -15 -40 -18 -43 -14 -12 -41 -72 -35 -81 3 -5 0 -9 -6 -9 -6 0
-9 -4 -6 -9 3 -5 -1 -11 -9 -15 -8 -3 -15 -15 -15 -26 0 -11 -5 -20 -11 -20
-6 0 -9 -6 -6 -14 3 -8 1 -16 -4 -18 -6 -2 -11 -10 -13 -18 -1 -8 -12 -34 -24
-57 -12 -24 -19 -43 -15 -43 5 0 3 -4 -3 -8 -15 -10 -64 -119 -56 -126 3 -3 0
-6 -6 -6 -7 0 -12 -5 -12 -11 0 -5 -12 -36 -27 -67 -14 -31 -26 -62 -26 -69 0
-7 -4 -13 -9 -13 -4 0 -8 -9 -8 -20 0 -11 -5 -20 -11 -20 -5 0 -8 -4 -5 -8 3
-5 -1 -20 -9 -35 -7 -14 -11 -28 -7 -31 3 -3 1 -6 -5 -6 -10 0 -25 -39 -22
-56 0 -4 -4 -10 -10 -13 -6 -4 -12 -16 -14 -26 -2 -11 -11 -38 -21 -60 -10
-22 -19 -44 -21 -50 -1 -5 -8 -26 -16 -45 -7 -19 -12 -38 -11 -42 1 -5 -2 -8
-6 -8 -5 0 -9 -6 -9 -12 -1 -22 -8 -43 -16 -49 -4 -3 -9 -14 -11 -25 -2 -10
-13 -43 -25 -71 -11 -29 -18 -53 -15 -53 4 0 2 -6 -3 -12 -8 -10 -31 -68 -38
-98 -1 -3 -4 -12 -8 -20 -12 -32 -47 -130 -48 -138 -1 -4 -5 -17 -10 -30 -5
-13 -9 -27 -9 -30 0 -4 -12 -43 -26 -87 -14 -44 -28 -89 -31 -100 -2 -11 -5
-24 -7 -30 -1 -5 -7 -19 -13 -30 -6 -11 -9 -28 -8 -37 2 -10 -2 -18 -8 -18 -5
0 -8 -3 -4 -6 3 -3 -1 -23 -8 -45 -8 -21 -12 -39 -8 -39 3 0 -1 -7 -8 -17 -8
-9 -12 -17 -10 -17 2 -1 -2 -21 -9 -46 -7 -25 -13 -52 -15 -60 -2 -8 -8 -35
-15 -60 -7 -25 -14 -53 -16 -62 -2 -10 -7 -28 -10 -40 -3 -13 -7 -30 -9 -38
-1 -8 -5 -22 -8 -30 -4 -8 -9 -26 -11 -40 -3 -14 -5 -25 -6 -25 -2 0 -4 -12
-13 -55 -3 -14 -11 -47 -17 -75 -6 -27 -13 -59 -16 -70 -2 -11 -7 -33 -10 -50
-4 -16 -8 -39 -10 -50 -1 -11 -3 -20 -4 -20 -2 0 -4 -9 -6 -20 -10 -65 -13
-81 -15 -85 -1 -3 -3 -9 -4 -15 -1 -5 -4 -23 -8 -40 -4 -16 -9 -43 -12 -60 -3
-16 -7 -41 -10 -55 -3 -14 -7 -41 -10 -60 -3 -19 -7 -46 -10 -60 -3 -14 -8
-40 -10 -57 -3 -18 -7 -46 -10 -63 -3 -16 -7 -42 -9 -57 -2 -16 -7 -41 -10
-58 -3 -16 -8 -52 -11 -80 -4 -27 -8 -63 -10 -80 -3 -16 -7 -48 -9 -70 -3 -22
-7 -56 -10 -75 -3 -19 -8 -64 -12 -100 -3 -36 -8 -78 -10 -95 -1 -16 -6 -61
-9 -100 -4 -38 -8 -86 -10 -105 -4 -31 -9 -113 -20 -280 -30 -468 -21 -1232
20 -1630 3 -30 8 -77 11 -105 2 -27 7 -75 10 -105 3 -30 7 -73 9 -95 2 -22 4
-40 5 -40 1 0 3 -20 5 -45 2 -25 7 -61 10 -80 3 -19 7 -51 9 -70 2 -19 7 -51
10 -70 3 -19 8 -48 10 -65 14 -107 17 -133 23 -155 3 -14 7 -32 8 -40 1 -8 5
-37 10 -65 5 -27 9 -59 10 -70 1 -11 6 -36 10 -55 4 -19 9 -45 11 -57 1 -11 5
-31 9 -43 4 -12 8 -32 10 -43 1 -12 7 -47 13 -77 6 -30 14 -66 17 -80 2 -14 9
-47 15 -75 6 -27 12 -58 13 -67 1 -10 4 -18 7 -18 3 0 6 -8 7 -17 1 -10 4 -29
7 -43 9 -40 17 -73 22 -100 3 -14 8 -34 11 -45 4 -11 8 -24 9 -30 1 -5 12 -48
24 -95 12 -47 23 -92 25 -100 2 -8 4 -15 5 -15 1 0 3 -11 6 -25 2 -14 7 -32
11 -40 3 -8 7 -21 9 -29 3 -15 16 -61 19 -71 1 -3 6 -20 10 -38 4 -18 12 -35
16 -38 5 -3 7 -10 4 -15 -4 -5 -3 -15 2 -22 7 -12 9 -18 15 -47 2 -8 7 -21 11
-27 5 -7 6 -13 3 -13 -3 0 2 -19 10 -42 9 -24 17 -51 19 -60 2 -9 9 -27 16
-40 7 -13 12 -24 11 -26 -3 -3 10 -56 17 -67 3 -5 7 -19 8 -29 2 -11 8 -25 14
-33 6 -7 8 -13 4 -13 -4 0 -2 -7 5 -15 7 -8 10 -15 7 -15 -4 0 2 -20 13 -45
11 -25 17 -45 13 -45 -3 0 0 -6 6 -13 6 -8 8 -17 4 -20 -3 -4 -2 -7 3 -7 5 0
10 -10 11 -22 1 -11 8 -25 15 -29 7 -5 10 -9 6 -9 -7 0 33 -123 60 -180 9 -19
15 -38 14 -43 -1 -4 3 -7 8 -7 5 0 9 -3 9 -7 -3 -15 14 -74 22 -79 5 -3 9 -14
9 -25 0 -10 5 -19 12 -19 6 0 8 -3 5 -6 -3 -4 -1 -16 5 -28 7 -11 13 -26 14
-31 1 -10 14 -40 62 -157 9 -21 20 -38 25 -38 5 0 7 -6 4 -12 -2 -7 5 -28 15
-46 10 -18 18 -39 18 -47 0 -8 5 -15 12 -15 6 0 9 -3 5 -6 -3 -4 3 -25 15 -48
11 -22 20 -42 20 -43 -1 -2 12 -29 28 -62 17 -32 30 -64 30 -70 0 -6 4 -11 10
-11 5 0 9 -3 8 -7 -3 -10 34 -86 45 -94 5 -3 8 -10 8 -15 -1 -17 10 -44 20
-44 5 0 8 -3 7 -7 -4 -15 14 -53 24 -53 6 0 8 -3 5 -7 -4 -3 0 -17 8 -30 9
-13 12 -23 9 -23 -4 0 0 -8 8 -17 8 -10 23 -37 34 -60 10 -24 22 -43 27 -43 4
0 5 -4 2 -10 -3 -5 -1 -10 5 -10 6 0 9 -4 6 -9 -3 -5 4 -20 15 -35 11 -14 17
-26 12 -26 -4 0 -3 -4 2 -8 6 -4 17 -20 25 -37 8 -16 22 -42 32 -56 10 -14 15
-29 11 -32 -3 -4 2 -9 11 -13 9 -3 13 -10 10 -15 -3 -5 0 -9 6 -9 6 0 9 -4 5
-10 -3 -5 3 -18 15 -30 11 -11 17 -20 14 -20 -7 0 37 -73 49 -81 5 -3 8 -8 8
-10 -2 -16 14 -49 26 -53 8 -3 12 -10 9 -14 -3 -5 4 -19 15 -30 11 -12 16 -22
12 -22 -4 0 1 -7 12 -16 11 -8 19 -18 17 -22 -5 -9 40 -82 50 -82 4 0 5 -7 2
-15 -4 -8 -1 -15 5 -15 6 0 11 -7 11 -15 0 -9 7 -18 15 -21 8 -4 15 -10 15
-15 0 -12 71 -123 82 -127 4 -2 6 -8 2 -13 -3 -5 2 -12 10 -15 9 -3 13 -10 10
-15 -3 -5 6 -20 19 -33 14 -14 22 -27 20 -30 -3 -3 2 -8 11 -12 9 -3 14 -9 11
-14 -2 -4 4 -16 13 -26 10 -10 19 -22 20 -27 2 -9 31 -52 52 -76 8 -10 16 -24
18 -32 2 -8 9 -18 16 -24 7 -5 15 -18 19 -28 3 -9 11 -17 17 -17 6 0 8 -4 5
-10 -3 -5 -1 -10 4 -10 6 0 11 -5 11 -11 0 -11 60 -92 73 -97 4 -2 7 -8 7 -14
0 -5 6 -16 13 -23 27 -31 37 -44 37 -51 0 -3 11 -20 25 -38 14 -17 33 -42 42
-55 10 -13 25 -31 33 -40 8 -9 27 -36 43 -59 15 -23 32 -42 37 -42 6 0 10 -7
10 -15 0 -7 8 -19 18 -24 9 -6 13 -11 7 -11 -5 0 3 -11 19 -25 16 -14 26 -25
23 -25 -7 0 21 -35 65 -81 14 -15 24 -30 21 -32 -2 -3 6 -13 19 -23 13 -11 36
-38 52 -62 17 -24 44 -55 60 -69 17 -14 24 -21 16 -17 -17 9 49 -69 89 -105
14 -13 19 -20 11 -16 -8 5 6 -13 33 -38 26 -26 47 -49 47 -52 0 -5 50 -60 138
-153 23 -25 42 -49 42 -54 0 -4 7 -8 15 -8 9 0 19 -8 22 -17 4 -10 34 -45 67
-79 34 -34 78 -81 99 -103 21 -23 42 -41 47 -41 5 0 12 -9 15 -21 4 -11 9 -18
12 -16 2 3 19 -11 36 -30 18 -19 45 -47 61 -61 16 -15 55 -54 87 -86 33 -33
59 -56 59 -50 0 5 6 -2 13 -15 6 -13 15 -23 19 -23 4 1 38 -30 76 -68 38 -39
72 -70 76 -70 3 0 22 -17 41 -37 19 -20 35 -34 35 -30 0 4 17 -10 38 -31 20
-21 66 -63 102 -93 36 -30 83 -71 105 -91 22 -21 43 -38 46 -38 4 0 24 -16 45
-35 21 -19 44 -35 52 -35 7 0 10 -5 7 -10 -3 -6 -2 -10 3 -10 4 0 18 -9 30
-20 12 -12 22 -18 22 -14 0 3 9 -4 20 -17 10 -13 19 -21 20 -18 0 3 21 -14 47
-38 26 -23 52 -43 58 -43 6 0 16 -9 23 -20 7 -11 19 -20 27 -20 8 0 15 -4 15
-10 0 -5 5 -10 10 -10 6 0 19 -8 29 -18 33 -29 50 -43 53 -40 3 2 11 -5 76
-59 15 -13 33 -23 40 -23 6 0 12 -4 12 -9 0 -6 18 -20 40 -32 22 -13 40 -26
40 -30 0 -4 8 -10 17 -13 10 -3 30 -17 45 -31 16 -14 28 -22 28 -18 0 4 4 3 8
-2 8 -13 59 -46 68 -45 3 1 14 -8 23 -19 10 -12 23 -21 28 -21 6 0 18 -9 28
-20 10 -11 21 -17 25 -15 5 3 10 2 12 -3 6 -14 108 -82 124 -82 8 0 12 -4 9
-10 -3 -5 -1 -11 4 -11 6 -1 14 -2 19 -3 4 0 18 -11 31 -23 13 -12 28 -20 33
-17 4 3 8 0 8 -5 0 -6 20 -20 45 -32 25 -12 45 -25 45 -29 0 -4 8 -10 18 -14
21 -7 67 -34 108 -63 17 -12 34 -20 38 -16 3 3 6 1 6 -5 0 -7 7 -12 15 -12 8
0 15 -4 15 -10 0 -5 5 -10 10 -10 6 0 28 -11 50 -25 22 -14 40 -23 40 -20 0 3
6 1 13 -5 23 -20 87 -59 87 -54 0 3 13 -4 29 -15 16 -12 34 -21 40 -21 6 0 11
-5 11 -11 0 -5 5 -7 10 -4 6 3 10 2 10 -3 0 -9 37 -25 53 -23 4 1 7 -3 7 -7 0
-9 37 -29 54 -30 5 0 12 -4 15 -9 9 -12 79 -46 85 -42 3 2 12 -5 21 -16 9 -11
13 -14 9 -6 -4 8 10 1 31 -15 22 -16 36 -22 31 -14 -4 9 -1 8 7 -2 8 -10 21
-18 30 -18 8 0 17 -3 19 -7 4 -11 75 -43 94 -43 8 0 12 -4 9 -10 -3 -5 -3 -10
2 -11 29 -3 47 -9 54 -21 4 -7 11 -9 15 -6 3 4 13 0 21 -8 8 -8 19 -12 24 -9
5 4 9 2 9 -3 0 -5 10 -12 23 -16 12 -3 22 -4 22 -3 0 1 15 -8 32 -21 18 -13
37 -20 43 -17 5 3 10 2 10 -3 0 -8 13 -14 48 -22 4 -1 15 -8 24 -17 9 -8 22
-12 27 -8 6 3 11 3 11 -2 0 -11 51 -34 61 -27 5 3 9 1 9 -5 0 -10 38 -27 53
-23 4 1 7 -3 7 -9 0 -6 6 -9 14 -6 7 3 19 0 25 -6 7 -7 15 -12 19 -12 4 -1 17
-6 28 -13 12 -6 24 -8 28 -5 3 3 6 0 6 -7 0 -7 3 -10 7 -7 3 4 11 3 17 -2 6
-4 72 -32 146 -61 74 -29 149 -59 167 -66 17 -8 33 -14 36 -14 3 0 18 -5 34
-12 15 -6 31 -12 36 -13 4 -2 9 -4 12 -5 3 -1 10 -4 15 -5 6 -1 12 -4 15 -5 3
-1 8 -3 13 -5 4 -1 20 -7 35 -13 16 -7 34 -12 42 -12 8 0 16 -4 19 -9 3 -4 20
-12 38 -16 43 -10 42 -9 121 -39 37 -14 67 -22 67 -19 0 3 6 1 13 -5 10 -9 76
-30 99 -32 4 -1 23 -7 42 -15 18 -8 36 -11 40 -8 3 4 6 2 6 -4 0 -5 6 -10 13
-11 36 -5 53 -9 62 -14 10 -5 62 -21 80 -23 6 -1 23 -7 38 -14 16 -6 33 -9 38
-5 5 3 9 0 9 -7 0 -7 3 -10 6 -6 3 3 17 2 30 -3 14 -6 35 -12 47 -14 12 -3 60
-16 107 -29 47 -13 88 -24 93 -25 4 -1 8 -2 10 -3 1 0 9 -2 17 -4 8 -2 35 -8
60 -15 25 -7 56 -13 70 -15 14 -2 25 -4 25 -5 0 -1 7 -3 15 -5 8 -2 47 -11 85
-20 39 -9 79 -19 90 -21 11 -2 34 -7 50 -10 17 -4 39 -8 50 -10 11 -1 20 -3
20 -4 0 -2 34 -10 69 -15 15 -2 38 -7 50 -11 11 -4 35 -8 51 -10 17 -1 55 -8
85 -14 30 -7 66 -14 80 -15 14 -2 41 -6 60 -10 19 -4 46 -9 60 -10 14 -2 41
-7 60 -10 36 -6 68 -11 130 -19 19 -2 46 -7 60 -10 14 -4 45 -9 70 -11 25 -2
63 -7 85 -10 22 -4 58 -8 80 -10 60 -6 135 -14 180 -20 85 -11 324 -30 490
-40 251 -15 759 -26 783 -17 8 2 -363 381 -898 915 l-910 910 22 25 c13 13
424 426 914 916 l892 892 -147 1 c-210 2 -476 14 -631 29 -36 3 -85 8 -110 9
-25 2 -45 4 -45 5 0 1 -18 3 -40 5 -59 4 -148 16 -230 29 -16 3 -52 8 -80 12
-27 4 -54 8 -60 10 -10 2 -46 8 -121 20 -20 3 -46 8 -58 10 -70 13 -93 18
-106 19 -8 1 -22 5 -30 9 -8 3 -31 8 -50 10 -19 3 -35 6 -35 7 0 1 -9 3 -20 4
-11 2 -59 12 -107 24 -47 12 -96 23 -107 24 -12 1 -21 6 -21 11 0 5 -3 7 -6 3
-3 -3 -29 1 -57 10 -29 8 -63 17 -76 20 -14 2 -28 6 -33 9 -4 3 -16 7 -25 9
-10 2 -32 8 -50 14 -17 5 -34 7 -37 3 -3 -3 -6 -1 -6 5 0 5 -26 16 -57 23 -32
7 -64 17 -71 23 -7 5 -15 7 -18 4 -4 -3 -24 3 -46 14 -22 11 -42 18 -46 15 -3
-3 -10 -2 -16 2 -6 5 -31 15 -56 22 -25 7 -50 18 -57 23 -7 5 -17 6 -23 2 -5
-3 -10 -2 -10 3 0 6 -61 31 -120 47 -3 1 -18 7 -35 14 -16 7 -34 14 -40 15 -5
2 -32 13 -58 24 -27 12 -51 22 -53 22 -2 0 -24 9 -48 21 -25 11 -51 22 -59 23
-8 1 -22 8 -31 15 -9 7 -16 11 -16 7 0 -4 -10 0 -23 9 -13 8 -27 12 -30 8 -4
-3 -7 -1 -7 5 0 7 -5 12 -10 12 -6 0 -45 16 -88 37 -42 20 -83 36 -89 36 -7 0
-13 4 -13 8 0 7 -41 24 -48 20 -1 -1 -10 5 -18 14 -9 8 -20 13 -25 10 -5 -4
-9 -1 -9 4 0 6 -9 11 -21 11 -11 0 -17 5 -14 10 5 9 -15 15 -37 11 -5 0 -8 4
-8 9 0 6 -5 10 -10 10 -6 0 -28 11 -49 24 -21 14 -42 22 -45 19 -3 -4 -6 -2
-6 4 0 6 -8 13 -17 17 -10 3 -33 15 -51 26 -17 11 -32 16 -32 12 0 -4 -4 -2
-8 3 -9 12 -61 44 -84 52 -10 3 -18 9 -18 14 0 5 -7 9 -15 9 -9 0 -21 5 -28
10 -29 24 -103 70 -114 70 -7 0 -13 5 -13 10 0 6 -6 10 -13 10 -8 0 -24 9 -37
20 -12 11 -27 17 -33 13 -6 -3 -7 -1 -3 5 6 11 -5 16 -20 10 -3 -2 -10 5 -15
15 -6 9 -14 15 -19 12 -4 -3 -10 2 -14 10 -3 8 -12 15 -21 15 -8 0 -15 5 -15
10 0 6 -7 10 -15 10 -8 0 -15 5 -15 10 0 6 -7 10 -15 10 -8 0 -15 5 -15 12 0
6 -3 9 -6 5 -3 -3 -17 4 -31 16 -13 12 -28 22 -31 21 -4 -1 -12 6 -19 15 -7 9
-13 13 -13 9 0 -5 -8 -1 -17 7 -57 49 -92 75 -102 75 -6 0 -11 5 -11 10 0 6
-7 10 -15 10 -8 0 -15 5 -15 12 0 6 -3 9 -6 5 -3 -3 -17 6 -31 21 -13 15 -21
20 -17 12 4 -8 -4 -4 -18 10 -31 31 -80 68 -91 69 -5 0 -17 11 -28 25 -11 15
-25 26 -30 26 -6 0 -21 10 -33 23 -13 12 -37 32 -53 44 -16 12 -41 33 -54 45
-14 13 -42 37 -64 53 -21 17 -48 40 -60 52 -13 12 -26 19 -29 16 -3 -4 -6 2
-6 12 0 10 -3 16 -6 13 -3 -3 -20 8 -38 26 -19 17 -51 48 -73 69 -22 20 -43
34 -46 30 -4 -3 -7 1 -7 10 0 9 -5 19 -12 23 -7 5 -8 3 -3 -6 5 -9 4 -11 -3
-6 -7 4 -12 14 -12 22 0 8 -4 14 -9 14 -11 0 -338 327 -352 351 -5 11 -14 17
-20 14 -5 -4 -9 0 -9 9 0 8 -4 16 -9 18 -5 2 -24 22 -44 45 -19 23 -37 39 -41
36 -3 -4 -6 -2 -6 4 0 16 -56 83 -64 76 -3 -3 -6 -1 -6 5 0 12 -16 35 -65 88
-16 18 -41 47 -55 65 -14 18 -35 43 -48 56 -13 13 -20 23 -18 23 7 0 -31 46
-69 84 -16 16 -24 26 -17 22 16 -10 -42 68 -103 138 -14 16 -25 35 -25 42 0 7
-12 22 -27 34 -16 12 -22 18 -15 15 8 -4 -7 19 -31 51 -25 33 -54 73 -64 90
-38 64 -104 159 -116 166 -7 4 -8 8 -3 8 4 0 -3 15 -18 34 -14 19 -26 39 -26
43 0 5 -12 25 -26 44 -14 19 -32 48 -40 65 -8 17 -24 41 -35 53 -11 11 -17 21
-15 21 8 0 -58 115 -74 130 -3 3 -6 11 -8 19 -2 8 -12 27 -23 42 -10 15 -19
32 -19 38 0 6 -5 11 -11 11 -5 0 -8 4 -5 8 3 5 -5 24 -17 43 -12 19 -23 41
-25 49 -2 8 -7 17 -11 20 -9 7 -35 63 -33 73 1 4 -2 7 -6 7 -4 0 -16 20 -26
45 -11 25 -23 45 -28 45 -4 0 -7 3 -5 8 4 12 -36 102 -46 102 -4 0 -6 4 -3 9
3 4 -1 17 -9 27 -8 10 -15 27 -15 37 0 9 -5 17 -11 17 -5 0 -8 4 -5 9 3 4 -1
17 -9 27 -8 10 -15 27 -15 37 0 9 -4 17 -10 17 -5 0 -9 3 -8 8 3 12 -25 82
-34 82 -4 0 -5 7 -2 15 4 8 1 15 -7 15 -7 0 -9 3 -6 6 3 4 1 16 -5 28 -7 11
-13 24 -14 29 -1 4 -3 9 -4 12 -1 3 -3 8 -5 13 -1 4 -8 21 -15 37 -7 17 -14
32 -14 35 -1 3 -5 11 -9 18 -5 6 -6 12 -2 12 3 0 -3 17 -14 39 -11 21 -17 41
-14 45 4 3 0 6 -7 6 -7 0 -11 3 -7 6 5 6 -8 48 -33 109 -5 11 -14 38 -21 60
-6 22 -16 46 -22 52 -5 7 -7 13 -3 13 3 0 0 15 -8 34 -8 19 -12 37 -8 40 3 3
0 6 -7 6 -7 0 -10 4 -7 9 3 5 -1 25 -9 45 -8 20 -12 36 -9 36 4 0 1 6 -5 13
-6 8 -8 17 -4 20 3 4 2 7 -3 7 -5 0 -11 9 -12 20 -4 44 -6 50 -14 50 -5 0 -7
4 -4 9 4 5 1 22 -5 38 -7 15 -13 33 -14 38 -4 31 -18 91 -24 100 -6 10 -10 26
-15 61 -2 11 -6 26 -10 32 -3 6 -8 23 -10 39 -3 15 -14 71 -26 123 -12 52 -23
106 -26 120 -3 14 -7 32 -9 40 -3 8 -7 32 -11 54 -3 21 -8 48 -10 60 -3 11 -7
35 -10 51 -3 17 -9 53 -14 80 -5 28 -12 73 -16 100 -4 28 -8 57 -9 65 -2 8 -5
38 -9 65 -3 28 -8 61 -10 75 -3 14 -7 52 -10 85 -4 33 -8 74 -10 90 -4 27 -10
101 -21 250 -6 72 -18 448 -18 535 0 108 12 449 18 515 3 28 8 82 11 120 7 92
11 127 19 200 4 33 9 76 10 95 2 19 4 35 5 35 1 0 3 14 5 30 5 53 20 158 30
201 2 11 7 40 10 65 3 24 7 54 10 67 3 12 7 32 10 44 2 12 7 38 10 58 3 20 8
47 11 60 12 51 25 116 28 135 2 11 6 27 9 35 3 8 11 42 18 75 15 71 13 61 27
109 6 22 9 43 6 48 -3 4 -1 8 4 8 5 0 9 6 9 13 0 24 90 333 104 360 5 10 7 22
4 27 -4 6 -2 10 3 10 5 0 9 6 10 13 1 18 7 38 21 72 7 17 13 38 14 48 1 9 5
17 10 17 4 0 7 6 5 13 -1 6 3 22 10 35 7 12 10 22 6 22 -3 0 -2 6 3 13 11 13
27 67 25 80 -1 4 3 7 9 7 6 0 9 7 5 15 -3 8 -1 15 5 15 6 0 7 5 4 10 -3 6 -1
10 6 10 7 0 10 3 7 6 -4 3 0 17 7 31 8 15 12 30 9 35 -3 4 0 8 5 8 6 0 10 3 9
8 -1 8 5 26 37 99 13 28 21 54 17 57 -3 3 0 6 7 6 8 0 11 7 7 15 -3 8 -1 15 5
15 6 0 7 5 4 10 -3 6 -2 10 3 10 9 0 27 47 24 63 -1 4 3 7 9 7 5 0 7 5 4 10
-3 6 -1 10 4 10 6 0 11 9 11 20 0 11 5 20 11 20 6 0 9 6 6 14 -3 8 -2 16 3 18
5 2 10 10 12 18 2 8 5 17 8 20 11 11 57 109 49 104 -5 -3 2 11 16 31 13 21 22
41 19 46 -3 5 -1 9 5 9 9 0 17 16 23 45 1 6 10 19 20 29 9 10 15 23 12 27 -2
4 0 10 6 14 6 4 8 11 5 16 -4 5 -2 9 4 9 5 0 19 21 32 48 12 26 33 64 46 85
13 20 21 37 18 37 -3 0 4 9 15 20 12 12 18 25 15 29 -2 5 2 14 10 21 8 7 13
16 10 20 -3 4 2 11 11 14 8 3 12 10 9 16 -3 5 -2 10 2 10 5 0 14 9 21 21 11
17 11 20 0 14 -7 -3 -5 0 5 8 10 9 20 23 21 32 1 9 7 20 13 23 10 7 37 51 38
62 0 3 10 16 22 29 12 13 20 28 17 33 -3 4 0 8 6 8 6 0 9 4 6 9 -3 5 1 12 10
15 9 4 14 9 11 12 -3 4 -1 12 6 20 24 26 52 68 64 94 4 8 17 26 30 40 13 14
26 33 29 43 3 9 10 17 15 17 6 0 7 5 4 10 -3 6 -1 10 4 10 6 0 11 6 11 13 0 8
11 24 25 37 13 12 22 27 19 31 -3 5 -1 9 4 9 5 0 26 25 48 57 21 31 44 62 51
68 7 7 9 15 6 19 -4 3 -2 6 4 6 5 0 24 20 42 45 17 24 39 51 47 60 9 8 13 15
9 15 -3 0 6 11 21 25 15 14 24 25 21 25 -3 0 9 15 26 33 44 46 92 111 89 120
-1 4 5 7 15 7 9 0 14 3 11 6 -4 3 7 18 23 33 16 15 26 30 23 34 -3 3 4 8 15
12 12 3 21 10 21 15 0 5 12 21 28 37 56 59 92 103 92 113 0 6 5 8 10 5 6 -3
10 1 10 10 0 9 5 13 10 10 6 -3 10 -2 10 3 0 5 88 97 195 205 107 107 195 193
195 190 0 -2 25 21 55 51 31 30 59 57 63 58 4 2 6 7 4 11 -1 5 2 6 7 3 5 -4
13 -1 18 6 4 7 28 29 53 49 25 20 62 53 83 72 20 20 37 33 37 29 0 -3 17 12
37 34 20 21 33 32 29 24 -4 -8 6 -1 22 17 17 17 33 29 36 26 3 -3 8 2 12 11 3
9 12 16 20 16 8 0 14 4 14 8 0 4 13 15 29 25 16 10 45 33 65 51 19 19 36 32
39 30 2 -2 16 7 30 20 14 13 28 21 31 19 3 -3 8 2 12 11 3 9 13 16 21 16 8 0
11 5 8 10 -3 6 1 10 10 10 9 0 27 11 40 25 14 13 25 22 25 19 0 -6 72 47 82
61 5 7 8 7 8 0 0 -5 5 -2 11 8 6 9 14 15 19 12 5 -3 15 4 23 15 7 11 17 17 20
13 4 -3 7 -1 7 6 0 7 5 9 10 6 6 -3 10 -2 10 4 0 5 10 13 23 17 21 6 60 34
101 72 14 12 17 13 12 2 -4 -8 0 -6 9 5 9 11 18 18 20 15 2 -3 13 3 24 12 11
9 22 14 25 11 3 -4 6 -1 6 5 0 7 7 12 15 12 9 0 18 7 21 15 4 8 9 13 13 11 6
-4 78 39 109 64 6 6 12 8 12 6 0 -3 23 8 50 24 28 17 55 30 61 30 5 0 12 7 15
15 4 8 10 13 14 10 5 -3 15 2 24 10 8 9 19 16 23 17 18 2 39 12 56 26 9 8 17
11 17 7 0 -5 12 2 27 16 14 13 23 17 19 9 -4 -8 0 -6 9 5 9 11 18 19 20 18 10
-6 85 30 85 40 0 6 3 8 6 4 4 -3 21 1 38 10 17 10 33 18 36 18 15 3 106 51
108 58 2 4 7 5 12 2 5 -3 14 0 22 7 7 7 22 15 33 16 11 2 34 12 51 23 17 10
34 16 37 12 4 -3 7 -1 7 6 0 7 4 10 9 6 5 -3 15 1 23 8 7 8 19 12 26 9 6 -2
12 2 12 9 0 7 3 10 6 6 4 -3 19 0 35 9 16 8 32 15 36 15 5 1 17 6 28 12 11 6
27 12 35 13 8 2 23 7 35 12 11 5 38 17 60 27 22 10 46 18 53 16 6 -1 12 3 12
9 0 5 3 9 8 9 4 -1 9 -1 12 1 3 1 16 4 30 6 14 3 27 9 28 14 2 6 8 7 13 4 6
-3 15 -1 22 4 7 5 24 12 39 16 15 3 40 11 55 17 15 6 29 10 31 10 1 -1 18 5
37 13 19 8 35 12 35 9 0 -3 7 0 15 7 8 7 15 9 15 5 0 -4 7 -2 15 5 8 7 15 9
15 5 0 -4 6 -2 13 4 8 6 17 8 20 4 4 -3 7 -2 7 3 0 5 8 10 18 10 9 1 73 18
142 38 69 20 134 38 145 41 11 2 20 4 20 5 0 1 7 3 15 5 8 2 26 7 40 10 14 3
36 8 50 11 14 3 33 7 42 10 10 3 30 8 45 11 42 8 58 11 58 13 0 1 19 6 53 14
17 3 162 153 162 166 0 6 7 10 15 10 8 0 15 4 15 9 0 5 32 41 71 80 38 39 67
71 62 71 -4 0 4 8 20 18 15 10 24 22 20 25 -3 4 1 7 10 7 9 0 16 3 15 8 -2 4
21 29 49 56 29 27 50 53 47 58 -3 4 2 8 10 8 9 0 16 7 16 15 0 8 3 14 8 13 4
-2 8 2 10 7 2 6 13 15 25 22 12 7 19 12 16 13 -4 0 30 38 75 83 188 194 246
257 246 268 0 7 3 9 6 6 4 -4 23 12 43 34 19 23 70 76 113 119 42 43 74 80 71
84 -4 3 2 6 12 6 10 0 16 2 13 5 -3 3 30 41 73 84 44 43 79 83 79 90 0 7 4 10
9 6 5 -3 12 4 16 15 4 11 11 18 16 15 5 -4 9 1 9 10 0 9 5 13 10 10 6 -3 10
-2 10 3 0 5 35 46 78 90 198 205 222 230 222 240 0 6 5 14 12 18 7 5 8 3 3 -6
-5 -9 -4 -11 3 -6 7 4 12 13 12 21 0 8 5 17 12 21 7 5 9 2 4 -7 -4 -8 0 -5 8
5 9 11 16 24 16 29 0 4 5 5 10 2 6 -3 10 -2 10 4 0 5 32 42 70 81 39 39 70 74
70 77 0 3 -99 105 -220 226 -121 120 -220 223 -220 228 0 5 -4 9 -9 9 -11 0
-951 940 -951 951 0 5 -4 9 -9 9 -5 0 -83 74 -173 165 -90 91 -167 163 -170
160z m-18 -3609 c0 -2 -8 -10 -17 -17 -16 -13 -17 -12 -4 4 13 16 21 21 21 13z"/>
</g>
</svg>
