<?xml version="1.0" encoding="UTF-8" standalone="no"?>
<svg
   xmlns:dc="http://purl.org/dc/elements/1.1/"
   xmlns:cc="http://creativecommons.org/ns#"
   xmlns:rdf="http://www.w3.org/1999/02/22-rdf-syntax-ns#"
   xmlns:svg="http://www.w3.org/2000/svg"
   xmlns="http://www.w3.org/2000/svg"
   viewBox="0 0 135.73334 54.080002"
   height="54.080002"
   width="135.73334"
   xml:space="preserve"
   id="svg2"
   version="1.1"><metadata
     id="metadata8"><rdf:RDF><cc:Work
         rdf:about=""><dc:format>image/svg+xml</dc:format><dc:type
           rdf:resource="http://purl.org/dc/dcmitype/StillImage" /></cc:Work></rdf:RDF></metadata><defs
     id="defs6" /><g
     transform="matrix(1.3333333,0,0,-1.3333333,0,54.08)"
     id="g10"><g
       transform="scale(0.1)"
       id="g12"><path
         id="path14"
         style="fill:#231f20;fill-opacity:1;fill-rule:nonzero;stroke:none"
         d="m 534.785,400 h 68.375 v 5.60156 h -68.375 z" /><g
         transform="scale(10)"
         id="g16" /><path
         id="path18"
         style="fill:#231f20;fill-opacity:1;fill-rule:nonzero;stroke:none"
         d="m 63.043,214.621 79.676,86.16 H 67.6016 v 43.922 H 212.32 V 306.301 L 131.918,217.262 H 216.16 V 173.34 H 63.043 v 41.281" /><path
         id="path20"
         style="fill:#231f20;fill-opacity:1;fill-rule:nonzero;stroke:none"
         d="m 755.117,287.578 h 13.598 v -43.676 h 0.324 c 1.063,2.45 2.582,4.586 4.559,6.395 1.972,1.816 4.132,3.281 6.48,4.406 2.344,1.117 4.824,1.942 7.442,2.477 2.613,0.531 5.14,0.8 7.597,0.8 5.442,0 9.977,-0.75 13.598,-2.238 3.629,-1.5 6.562,-3.578 8.805,-6.238 2.238,-2.672 3.808,-5.84 4.714,-9.524 0.911,-3.679 1.364,-7.757 1.364,-12.242 V 173.34 H 810 v 56 c 0,5.117 -1.5,9.172 -4.48,12.16 -2.993,2.984 -7.098,4.48 -12.321,4.48 -4.16,0 -7.761,-0.636 -10.801,-1.921 -3.039,-1.282 -5.578,-3.09 -7.597,-5.442 -2.031,-2.344 -3.551,-5.09 -4.563,-8.234 -1.015,-3.153 -1.523,-6.59 -1.523,-10.324 V 173.34 h -13.598 v 114.238" /><path
         id="path22"
         style="fill:#231f20;fill-opacity:1;fill-rule:nonzero;stroke:none"
         d="m 857.043,213.98 c 0,-3.839 0.5,-7.597 1.516,-11.281 1.011,-3.679 2.558,-6.957 4.64,-9.836 2.078,-2.883 4.746,-5.175 8,-6.883 3.254,-1.707 7.067,-2.562 11.442,-2.562 4.586,0 8.476,0.91 11.679,2.719 3.2,1.816 5.813,4.191 7.836,7.125 2.028,2.929 3.496,6.265 4.403,10 0.906,3.73 1.363,7.519 1.363,11.359 0,4.051 -0.481,7.973 -1.442,11.762 -0.96,3.781 -2.48,7.117 -4.562,10 -2.078,2.875 -4.773,5.199 -8.078,6.957 -3.309,1.758 -7.309,2.64 -12,2.64 -4.695,0 -8.617,-0.906 -11.762,-2.718 -3.144,-1.817 -5.68,-4.219 -7.598,-7.203 -1.917,-2.989 -3.304,-6.399 -4.16,-10.239 -0.855,-3.843 -1.277,-7.789 -1.277,-11.84 z m 63.996,-40.64 h -13.598 v 11.199 h -0.324 c -2.238,-4.586 -5.754,-7.918 -10.558,-10 -4.801,-2.078 -10.079,-3.117 -15.84,-3.117 -6.399,0 -11.973,1.172 -16.719,3.519 -4.746,2.344 -8.695,5.52 -11.844,9.516 -3.14,4.004 -5.515,8.613 -7.117,13.844 -1.601,5.226 -2.398,10.773 -2.398,16.64 0,5.864 0.773,11.383 2.32,16.559 1.543,5.172 3.891,9.73 7.043,13.68 3.141,3.945 7.09,7.066 11.836,9.363 4.746,2.289 10.265,3.437 16.558,3.437 2.137,0 4.426,-0.214 6.883,-0.64 2.449,-0.426 4.903,-1.149 7.36,-2.16 2.453,-1.016 4.773,-2.348 6.961,-3.996 2.183,-1.657 4.023,-3.711 5.515,-6.164 h 0.324 v 42.558 h 13.598 V 173.34" /><path
         id="path24"
         style="fill:#231f20;fill-opacity:1;fill-rule:nonzero;stroke:none"
         d="m 945.996,287.578 h 13.598 v -67.68 l 37.765,36.161 h 18.241 l -32.803,-30.079 35.193,-52.64 h -17.27 l -28.322,43.199 -12.804,-11.836 V 173.34 h -13.598 v 114.238" /><path
         id="path26"
         style="fill:#231f20;fill-opacity:1;fill-rule:nonzero;stroke:none"
         d="m 534.785,90 h 68.375 v 5.60156 h -68.375 z" /><path
         id="path28"
         style="fill:#231f20;fill-opacity:1;fill-rule:nonzero;stroke:none"
         d="M 534.785,0 H 603.16 V 5.60156 H 534.785 Z" /></g></g></svg>